/* XPM */
static char * angle_xpm[] = {
"24 24 21 1",
" 	c None",
".	c #000000",
"+	c #21201E",
"@	c #95938B",
"#	c #C5C2B7",
"$	c #B0AC9C",
"%	c #858276",
"&	c #1D1D1A",
"*	c #9B988A",
"=	c #9E9A8C",
"-	c #D1CFC7",
";	c #B8B4A6",
">	c #CFCCC4",
",	c #E4E2DE",
"'	c #DEDCD7",
")	c #D7D5CF",
"!	c #C5C1B7",
"~	c #BFBBAF",
"{	c #8D8A7D",
"]	c #7E7B70",
"^	c #79766C",
"                        ",
"    ...     ...         ",
"   +@#@+   +@#@+        ",
"  .@###@. .@###@.       ",
"  .$$$$$. .$$$$$.       ",
"  .%$$$%. .%$$$%.       ",
"   &%$%&   &%$%&        ",
"    ...     ...         ",
" .................    . ",
" .***************.   .. ",
" .***************.  .=. ",
" .-##############. .=;. ",
" .-##############..=>,. ",
" .-##############..')!. ",
" .$$$$$$$$$$$$$$$..;;~. ",
" .$$$$$$$$$$$$$$$..=$$. ",
" .***************..===. ",
" .***************. .{=. ",
" .***************.  .]. ",
" .^^^^^^^^^^^^^^^.   .. ",
" .^^^^^^^^^^^^^^^.    . ",
" .................      ",
"                        ",
"                        "};
