/* XPM */
static const char *const hash_xpm[] = {
"32 32 5 1",
" 	c None",
".	c #FF0000",
"+	c #FFFFFF",
"@	c #B22222",
"#	c #708090",
"                                ",
"                                ",
"       ...        ...           ",
"       .+.@@      .+.@@         ",
"       .+.@@#     .+.@@#        ",
"       .+.@@#     .+.@@#        ",
"       .+.@@#     .+.@@#        ",
"       .+.@@#     .+.@@#        ",
"       .+.@@#     .+.@@#        ",
"       .+.@@#     .+.@@#        ",
" .......+..........+.......     ",
" .++++++++++++++++++++++++.@@   ",
" .......+..........+.......@@#  ",
"   @@@@.+.@@@@@@@@.+.@@@@@@@@#  ",
"   @@@@.+.@@@@@@@@.+.@@@@@@@@#  ",
"    ###.+.@@######.+.@@#######  ",
"       .+.@@      .+.@@#        ",
"       .+.@@      .+.@@#        ",
" .......+..........+.......     ",
" .++++++++++++++++++++++++.@@   ",
" .......+..........+.......@@#  ",
"   @@@@.+.@@@@@@@@.+.@@@@@@@@#  ",
"   @@@@.+.@@@@@@@@.+.@@@@@@@@#  ",
"    ###.+.@@######.+.@@#######  ",
"       .+.@@#     .+.@@#        ",
"       .+.@@#     .+.@@#        ",
"       .+.@@#     .+.@@#        ",
"       .+.@@#     .+.@@#        ",
"       ...@@#     ...@@#        ",
"        @@@@#      @@@@#        ",
"        @@@@#      @@@@#        ",
"                                "};
